<mxfile host="app.diagrams.net" modified="2023-06-23T14:30:55.747Z" agent="Mozilla/5.0 (Windows NT 10.0; Win64; x64) AppleWebKit/537.36 (KHTML, like Gecko) Chrome/114.0.0.0 Safari/537.36" etag="z5AQVaNPnjrKA96wsFW_" version="21.5.0" type="github">
  <diagram name="Página-1" id="LR75LMpZKILDS1RCnHsB">
    <mxGraphModel dx="870" dy="708" grid="1" gridSize="10" guides="1" tooltips="1" connect="1" arrows="1" fold="1" page="1" pageScale="1" pageWidth="2200" pageHeight="550" math="0" shadow="0">
      <root>
        <mxCell id="0" />
        <mxCell id="1" parent="0" />
        <mxCell id="Bxh1SdX6oCCCvW3dw0KN-14" value="Crear solicitudes en estado pendiente con marca en epro" style="swimlane;childLayout=stackLayout;resizeParent=1;resizeParentMax=0;horizontal=1;startSize=20;horizontalStack=0;html=1;" vertex="1" parent="1">
          <mxGeometry x="40" y="40" width="2020" height="480" as="geometry" />
        </mxCell>
        <mxCell id="Bxh1SdX6oCCCvW3dw0KN-15" value="Creación de A3 con marca en epro" style="swimlane;startSize=20;horizontal=0;html=1;" vertex="1" parent="Bxh1SdX6oCCCvW3dw0KN-14">
          <mxGeometry y="20" width="2020" height="460" as="geometry" />
        </mxCell>
        <mxCell id="Bxh1SdX6oCCCvW3dw0KN-28" style="edgeStyle=orthogonalEdgeStyle;rounded=0;orthogonalLoop=1;jettySize=auto;html=1;entryX=0;entryY=0.5;entryDx=0;entryDy=0;entryPerimeter=0;" edge="1" parent="Bxh1SdX6oCCCvW3dw0KN-15" source="Bxh1SdX6oCCCvW3dw0KN-18" target="Bxh1SdX6oCCCvW3dw0KN-22">
          <mxGeometry relative="1" as="geometry" />
        </mxCell>
        <mxCell id="Bxh1SdX6oCCCvW3dw0KN-18" value="" style="points=[[0.145,0.145,0],[0.5,0,0],[0.855,0.145,0],[1,0.5,0],[0.855,0.855,0],[0.5,1,0],[0.145,0.855,0],[0,0.5,0]];shape=mxgraph.bpmn.event;html=1;verticalLabelPosition=bottom;labelBackgroundColor=#ffffff;verticalAlign=top;align=center;perimeter=ellipsePerimeter;outlineConnect=0;aspect=fixed;outline=standard;symbol=general;fillColor=#f8cecc;strokeColor=#b85450;" vertex="1" parent="Bxh1SdX6oCCCvW3dw0KN-15">
          <mxGeometry x="60" y="70" width="40" height="40" as="geometry" />
        </mxCell>
        <mxCell id="Bxh1SdX6oCCCvW3dw0KN-19" value="" style="points=[[0.145,0.145,0],[0.5,0,0],[0.855,0.145,0],[1,0.5,0],[0.855,0.855,0],[0.5,1,0],[0.145,0.855,0],[0,0.5,0]];shape=mxgraph.bpmn.event;html=1;verticalLabelPosition=bottom;labelBackgroundColor=#ffffff;verticalAlign=top;align=center;perimeter=ellipsePerimeter;outlineConnect=0;aspect=fixed;outline=end;symbol=terminate2;fillColor=#f8cecc;strokeColor=#b85450;" vertex="1" parent="Bxh1SdX6oCCCvW3dw0KN-15">
          <mxGeometry x="1630" y="170" width="40" height="40" as="geometry" />
        </mxCell>
        <mxCell id="Bxh1SdX6oCCCvW3dw0KN-29" style="edgeStyle=orthogonalEdgeStyle;rounded=0;orthogonalLoop=1;jettySize=auto;html=1;entryX=0;entryY=0.5;entryDx=0;entryDy=0;entryPerimeter=0;" edge="1" parent="Bxh1SdX6oCCCvW3dw0KN-15" source="Bxh1SdX6oCCCvW3dw0KN-21" target="Bxh1SdX6oCCCvW3dw0KN-23">
          <mxGeometry relative="1" as="geometry" />
        </mxCell>
        <mxCell id="Bxh1SdX6oCCCvW3dw0KN-21" value="" style="points=[[0.145,0.145,0],[0.5,0,0],[0.855,0.145,0],[1,0.5,0],[0.855,0.855,0],[0.5,1,0],[0.145,0.855,0],[0,0.5,0]];shape=mxgraph.bpmn.event;html=1;verticalLabelPosition=bottom;labelBackgroundColor=#ffffff;verticalAlign=top;align=center;perimeter=ellipsePerimeter;outlineConnect=0;aspect=fixed;outline=standard;symbol=general;fillColor=#f8cecc;strokeColor=#b85450;" vertex="1" parent="Bxh1SdX6oCCCvW3dw0KN-15">
          <mxGeometry x="60" y="270" width="40" height="40" as="geometry" />
        </mxCell>
        <mxCell id="Bxh1SdX6oCCCvW3dw0KN-26" style="edgeStyle=orthogonalEdgeStyle;rounded=0;orthogonalLoop=1;jettySize=auto;html=1;" edge="1" parent="Bxh1SdX6oCCCvW3dw0KN-15" source="Bxh1SdX6oCCCvW3dw0KN-22" target="Bxh1SdX6oCCCvW3dw0KN-27">
          <mxGeometry relative="1" as="geometry">
            <mxPoint x="340" y="90" as="targetPoint" />
          </mxGeometry>
        </mxCell>
        <mxCell id="Bxh1SdX6oCCCvW3dw0KN-22" value="Ingresar en ZonaSER Prestador" style="points=[[0.25,0,0],[0.5,0,0],[0.75,0,0],[1,0.25,0],[1,0.5,0],[1,0.75,0],[0.75,1,0],[0.5,1,0],[0.25,1,0],[0,0.75,0],[0,0.5,0],[0,0.25,0]];shape=mxgraph.bpmn.task;whiteSpace=wrap;rectStyle=rounded;size=10;html=1;container=1;expand=0;collapsible=0;taskMarker=user;" vertex="1" parent="Bxh1SdX6oCCCvW3dw0KN-15">
          <mxGeometry x="130" y="50" width="120" height="80" as="geometry" />
        </mxCell>
        <mxCell id="Bxh1SdX6oCCCvW3dw0KN-23" value="Ingresar en OASIS" style="points=[[0.25,0,0],[0.5,0,0],[0.75,0,0],[1,0.25,0],[1,0.5,0],[1,0.75,0],[0.75,1,0],[0.5,1,0],[0.25,1,0],[0,0.75,0],[0,0.5,0],[0,0.25,0]];shape=mxgraph.bpmn.task;whiteSpace=wrap;rectStyle=rounded;size=10;html=1;container=1;expand=0;collapsible=0;taskMarker=user;fillColor=#fff2cc;strokeColor=#d6b656;" vertex="1" parent="Bxh1SdX6oCCCvW3dw0KN-15">
          <mxGeometry x="130" y="250" width="120" height="80" as="geometry" />
        </mxCell>
        <mxCell id="Bxh1SdX6oCCCvW3dw0KN-62" value="Ingresar en ZonaSER Prestador" style="points=[[0.25,0,0],[0.5,0,0],[0.75,0,0],[1,0.25,0],[1,0.5,0],[1,0.75,0],[0.75,1,0],[0.5,1,0],[0.25,1,0],[0,0.75,0],[0,0.5,0],[0,0.25,0]];shape=mxgraph.bpmn.task;whiteSpace=wrap;rectStyle=rounded;size=10;html=1;container=1;expand=0;collapsible=0;taskMarker=user;fillColor=#fff2cc;strokeColor=#d6b656;" vertex="1" parent="Bxh1SdX6oCCCvW3dw0KN-23">
          <mxGeometry y="-200" width="120" height="80" as="geometry" />
        </mxCell>
        <mxCell id="Bxh1SdX6oCCCvW3dw0KN-63" value="Ingresar a modulo &quot;Atención al Usuario&quot;" style="points=[[0.25,0,0],[0.5,0,0],[0.75,0,0],[1,0.25,0],[1,0.5,0],[1,0.75,0],[0.75,1,0],[0.5,1,0],[0.25,1,0],[0,0.75,0],[0,0.5,0],[0,0.25,0]];shape=mxgraph.bpmn.task;whiteSpace=wrap;rectStyle=rounded;size=10;html=1;container=1;expand=0;collapsible=0;taskMarker=manual;fillColor=#fff2cc;strokeColor=#d6b656;" vertex="1" parent="Bxh1SdX6oCCCvW3dw0KN-23">
          <mxGeometry x="150" y="-200" width="120" height="80" as="geometry" />
        </mxCell>
        <mxCell id="Bxh1SdX6oCCCvW3dw0KN-33" style="edgeStyle=orthogonalEdgeStyle;rounded=0;orthogonalLoop=1;jettySize=auto;html=1;entryX=0;entryY=0.5;entryDx=0;entryDy=0;entryPerimeter=0;" edge="1" parent="Bxh1SdX6oCCCvW3dw0KN-15" source="Bxh1SdX6oCCCvW3dw0KN-25" target="Bxh1SdX6oCCCvW3dw0KN-32">
          <mxGeometry relative="1" as="geometry" />
        </mxCell>
        <mxCell id="Bxh1SdX6oCCCvW3dw0KN-25" value="Buscar modulo BINT" style="points=[[0.25,0,0],[0.5,0,0],[0.75,0,0],[1,0.25,0],[1,0.5,0],[1,0.75,0],[0.75,1,0],[0.5,1,0],[0.25,1,0],[0,0.75,0],[0,0.5,0],[0,0.25,0]];shape=mxgraph.bpmn.task;whiteSpace=wrap;rectStyle=rounded;size=10;html=1;container=1;expand=0;collapsible=0;taskMarker=manual;fillColor=#fff2cc;strokeColor=#d6b656;" vertex="1" parent="Bxh1SdX6oCCCvW3dw0KN-15">
          <mxGeometry x="280" y="250" width="120" height="80" as="geometry" />
        </mxCell>
        <mxCell id="Bxh1SdX6oCCCvW3dw0KN-24" style="edgeStyle=orthogonalEdgeStyle;rounded=0;orthogonalLoop=1;jettySize=auto;html=1;" edge="1" parent="Bxh1SdX6oCCCvW3dw0KN-15" source="Bxh1SdX6oCCCvW3dw0KN-23" target="Bxh1SdX6oCCCvW3dw0KN-25">
          <mxGeometry relative="1" as="geometry">
            <mxPoint x="330" y="290" as="targetPoint" />
          </mxGeometry>
        </mxCell>
        <mxCell id="Bxh1SdX6oCCCvW3dw0KN-36" style="edgeStyle=orthogonalEdgeStyle;rounded=0;orthogonalLoop=1;jettySize=auto;html=1;entryX=0;entryY=0.5;entryDx=0;entryDy=0;entryPerimeter=0;" edge="1" parent="Bxh1SdX6oCCCvW3dw0KN-15" source="Bxh1SdX6oCCCvW3dw0KN-27" target="Bxh1SdX6oCCCvW3dw0KN-35">
          <mxGeometry relative="1" as="geometry" />
        </mxCell>
        <mxCell id="Bxh1SdX6oCCCvW3dw0KN-27" value="Ingresar a modulo &quot;Atención al Usuario&quot;" style="points=[[0.25,0,0],[0.5,0,0],[0.75,0,0],[1,0.25,0],[1,0.5,0],[1,0.75,0],[0.75,1,0],[0.5,1,0],[0.25,1,0],[0,0.75,0],[0,0.5,0],[0,0.25,0]];shape=mxgraph.bpmn.task;whiteSpace=wrap;rectStyle=rounded;size=10;html=1;container=1;expand=0;collapsible=0;taskMarker=manual;fillColor=#fff2cc;strokeColor=#d6b656;" vertex="1" parent="Bxh1SdX6oCCCvW3dw0KN-15">
          <mxGeometry x="280" y="50" width="120" height="80" as="geometry" />
        </mxCell>
        <mxCell id="Bxh1SdX6oCCCvW3dw0KN-38" style="edgeStyle=orthogonalEdgeStyle;rounded=0;orthogonalLoop=1;jettySize=auto;html=1;" edge="1" parent="Bxh1SdX6oCCCvW3dw0KN-15" source="Bxh1SdX6oCCCvW3dw0KN-32">
          <mxGeometry relative="1" as="geometry">
            <mxPoint x="610" y="290" as="targetPoint" />
          </mxGeometry>
        </mxCell>
        <mxCell id="Bxh1SdX6oCCCvW3dw0KN-32" value="Seleccionar en la pestaña &quot;Interfases&quot; la opción &quot;Solicitudes de autorización masivas&quot;" style="points=[[0.25,0,0],[0.5,0,0],[0.75,0,0],[1,0.25,0],[1,0.5,0],[1,0.75,0],[0.75,1,0],[0.5,1,0],[0.25,1,0],[0,0.75,0],[0,0.5,0],[0,0.25,0]];shape=mxgraph.bpmn.task;whiteSpace=wrap;rectStyle=rounded;size=10;html=1;container=1;expand=0;collapsible=0;taskMarker=manual;fillColor=#fff2cc;strokeColor=#d6b656;" vertex="1" parent="Bxh1SdX6oCCCvW3dw0KN-15">
          <mxGeometry x="430" y="250" width="140" height="80" as="geometry" />
        </mxCell>
        <mxCell id="Bxh1SdX6oCCCvW3dw0KN-37" style="edgeStyle=orthogonalEdgeStyle;rounded=0;orthogonalLoop=1;jettySize=auto;html=1;" edge="1" parent="Bxh1SdX6oCCCvW3dw0KN-15" source="Bxh1SdX6oCCCvW3dw0KN-35" target="Bxh1SdX6oCCCvW3dw0KN-40">
          <mxGeometry relative="1" as="geometry">
            <mxPoint x="610" y="90" as="targetPoint" />
          </mxGeometry>
        </mxCell>
        <mxCell id="Bxh1SdX6oCCCvW3dw0KN-35" value="Diligenciar la información para crear el A3" style="points=[[0.25,0,0],[0.5,0,0],[0.75,0,0],[1,0.25,0],[1,0.5,0],[1,0.75,0],[0.75,1,0],[0.5,1,0],[0.25,1,0],[0,0.75,0],[0,0.5,0],[0,0.25,0]];shape=mxgraph.bpmn.task;whiteSpace=wrap;rectStyle=rounded;size=10;html=1;container=1;expand=0;collapsible=0;taskMarker=manual;fillColor=#fff2cc;strokeColor=#d6b656;" vertex="1" parent="Bxh1SdX6oCCCvW3dw0KN-15">
          <mxGeometry x="430" y="50" width="140" height="80" as="geometry" />
        </mxCell>
        <mxCell id="Bxh1SdX6oCCCvW3dw0KN-42" style="edgeStyle=orthogonalEdgeStyle;rounded=0;orthogonalLoop=1;jettySize=auto;html=1;entryX=0;entryY=0.5;entryDx=0;entryDy=0;entryPerimeter=0;" edge="1" parent="Bxh1SdX6oCCCvW3dw0KN-15" source="Bxh1SdX6oCCCvW3dw0KN-39" target="Bxh1SdX6oCCCvW3dw0KN-41">
          <mxGeometry relative="1" as="geometry" />
        </mxCell>
        <mxCell id="Bxh1SdX6oCCCvW3dw0KN-39" value="Dar clic en &quot;Aceptar&quot; y cargar archivo plano para cargue masivo" style="points=[[0.25,0,0],[0.5,0,0],[0.75,0,0],[1,0.25,0],[1,0.5,0],[1,0.75,0],[0.75,1,0],[0.5,1,0],[0.25,1,0],[0,0.75,0],[0,0.5,0],[0,0.25,0]];shape=mxgraph.bpmn.task;whiteSpace=wrap;rectStyle=rounded;size=10;html=1;container=1;expand=0;collapsible=0;taskMarker=manual;fillColor=#fff2cc;strokeColor=#d6b656;" vertex="1" parent="Bxh1SdX6oCCCvW3dw0KN-15">
          <mxGeometry x="610" y="250" width="140" height="80" as="geometry" />
        </mxCell>
        <mxCell id="Bxh1SdX6oCCCvW3dw0KN-43" style="edgeStyle=orthogonalEdgeStyle;rounded=0;orthogonalLoop=1;jettySize=auto;html=1;entryX=0;entryY=0.5;entryDx=0;entryDy=0;entryPerimeter=0;" edge="1" parent="Bxh1SdX6oCCCvW3dw0KN-15" source="Bxh1SdX6oCCCvW3dw0KN-40" target="Bxh1SdX6oCCCvW3dw0KN-41">
          <mxGeometry relative="1" as="geometry" />
        </mxCell>
        <mxCell id="Bxh1SdX6oCCCvW3dw0KN-40" value="Dar clic en &quot;Guardar&quot;" style="points=[[0.25,0,0],[0.5,0,0],[0.75,0,0],[1,0.25,0],[1,0.5,0],[1,0.75,0],[0.75,1,0],[0.5,1,0],[0.25,1,0],[0,0.75,0],[0,0.5,0],[0,0.25,0]];shape=mxgraph.bpmn.task;whiteSpace=wrap;rectStyle=rounded;size=10;html=1;container=1;expand=0;collapsible=0;taskMarker=manual;fillColor=#fff2cc;strokeColor=#d6b656;" vertex="1" parent="Bxh1SdX6oCCCvW3dw0KN-15">
          <mxGeometry x="610" y="50" width="140" height="80" as="geometry" />
        </mxCell>
        <mxCell id="Bxh1SdX6oCCCvW3dw0KN-44" style="edgeStyle=orthogonalEdgeStyle;rounded=0;orthogonalLoop=1;jettySize=auto;html=1;entryX=0;entryY=0.5;entryDx=0;entryDy=0;entryPerimeter=0;" edge="1" parent="Bxh1SdX6oCCCvW3dw0KN-15" source="Bxh1SdX6oCCCvW3dw0KN-41" target="Bxh1SdX6oCCCvW3dw0KN-45">
          <mxGeometry relative="1" as="geometry">
            <mxPoint x="1030" y="190" as="targetPoint" />
          </mxGeometry>
        </mxCell>
        <mxCell id="Bxh1SdX6oCCCvW3dw0KN-41" value="Validar en epro que los campos &lt;font style=&quot;font-size: 11px;&quot;&gt;&lt;em style=&quot;box-sizing: border-box; color: rgb(23, 43, 77); font-family: -apple-system, BlinkMacSystemFont, &amp;quot;Segoe UI&amp;quot;, Roboto, Oxygen, Ubuntu, &amp;quot;Fira Sans&amp;quot;, &amp;quot;Droid Sans&amp;quot;, &amp;quot;Helvetica Neue&amp;quot;, sans-serif; letter-spacing: -0.08px; text-align: left; background-color: rgb(255, 255, 255);&quot; data-renderer-mark=&quot;true&quot;&gt;&lt;strong style=&quot;box-sizing: border-box;&quot; data-renderer-mark=&quot;true&quot;&gt;Controlado o Capitado &lt;/strong&gt;&lt;/em&gt;&lt;span style=&quot;color: rgb(23, 43, 77); font-family: -apple-system, BlinkMacSystemFont, &amp;quot;Segoe UI&amp;quot;, Roboto, Oxygen, Ubuntu, &amp;quot;Fira Sans&amp;quot;, &amp;quot;Droid Sans&amp;quot;, &amp;quot;Helvetica Neue&amp;quot;, sans-serif; letter-spacing: -0.08px; text-align: left; background-color: rgb(255, 255, 255);&quot;&gt;se encuentre marcado o el campo &lt;/span&gt;&lt;em style=&quot;box-sizing: border-box; color: rgb(23, 43, 77); font-family: -apple-system, BlinkMacSystemFont, &amp;quot;Segoe UI&amp;quot;, Roboto, Oxygen, Ubuntu, &amp;quot;Fira Sans&amp;quot;, &amp;quot;Droid Sans&amp;quot;, &amp;quot;Helvetica Neue&amp;quot;, sans-serif; letter-spacing: -0.08px; text-align: left; background-color: rgb(255, 255, 255);&quot; data-renderer-mark=&quot;true&quot;&gt;&lt;strong style=&quot;box-sizing: border-box;&quot; data-renderer-mark=&quot;true&quot;&gt;Poss &lt;/strong&gt;&lt;/em&gt;&lt;span style=&quot;color: rgb(23, 43, 77); font-family: -apple-system, BlinkMacSystemFont, &amp;quot;Segoe UI&amp;quot;, Roboto, Oxygen, Ubuntu, &amp;quot;Fira Sans&amp;quot;, &amp;quot;Droid Sans&amp;quot;, &amp;quot;Helvetica Neue&amp;quot;, sans-serif; letter-spacing: -0.08px; text-align: left; background-color: rgb(255, 255, 255);&quot;&gt;no este marcado.&lt;/span&gt;&lt;/font&gt;" style="points=[[0.25,0,0],[0.5,0,0],[0.75,0,0],[1,0.25,0],[1,0.5,0],[1,0.75,0],[0.75,1,0],[0.5,1,0],[0.25,1,0],[0,0.75,0],[0,0.5,0],[0,0.25,0]];shape=mxgraph.bpmn.task;whiteSpace=wrap;rectStyle=rounded;size=10;html=1;container=1;expand=0;collapsible=0;taskMarker=service;fillColor=#fff2cc;strokeColor=#d6b656;" vertex="1" parent="Bxh1SdX6oCCCvW3dw0KN-15">
          <mxGeometry x="820" y="150" width="170" height="80" as="geometry" />
        </mxCell>
        <mxCell id="Bxh1SdX6oCCCvW3dw0KN-54" value="Si" style="edgeStyle=orthogonalEdgeStyle;rounded=0;orthogonalLoop=1;jettySize=auto;html=1;entryX=0;entryY=0.5;entryDx=0;entryDy=0;entryPerimeter=0;" edge="1" parent="Bxh1SdX6oCCCvW3dw0KN-15" source="Bxh1SdX6oCCCvW3dw0KN-45" target="Bxh1SdX6oCCCvW3dw0KN-55">
          <mxGeometry x="0.3478" relative="1" as="geometry">
            <mxPoint x="1065" y="380" as="targetPoint" />
            <Array as="points">
              <mxPoint x="1065" y="370" />
            </Array>
            <mxPoint as="offset" />
          </mxGeometry>
        </mxCell>
        <mxCell id="Bxh1SdX6oCCCvW3dw0KN-60" value="No" style="edgeStyle=orthogonalEdgeStyle;rounded=0;orthogonalLoop=1;jettySize=auto;html=1;entryX=0;entryY=0.5;entryDx=0;entryDy=0;entryPerimeter=0;" edge="1" parent="Bxh1SdX6oCCCvW3dw0KN-15" source="Bxh1SdX6oCCCvW3dw0KN-45" target="Bxh1SdX6oCCCvW3dw0KN-48">
          <mxGeometry relative="1" as="geometry" />
        </mxCell>
        <mxCell id="Bxh1SdX6oCCCvW3dw0KN-45" value="&lt;font style=&quot;font-size: 9px;&quot;&gt;Campo controlado o &lt;br&gt;capitado marcado y &lt;br&gt;campo poss &lt;br&gt;no marcado?&lt;/font&gt;" style="points=[[0.25,0.25,0],[0.5,0,0],[0.75,0.25,0],[1,0.5,0],[0.75,0.75,0],[0.5,1,0],[0.25,0.75,0],[0,0.5,0]];shape=mxgraph.bpmn.gateway2;html=1;verticalLabelPosition=bottom;labelBackgroundColor=#ffffff;verticalAlign=top;align=center;perimeter=rhombusPerimeter;outlineConnect=0;outline=none;symbol=none;fillColor=#fff2cc;strokeColor=#d6b656;" vertex="1" parent="Bxh1SdX6oCCCvW3dw0KN-15">
          <mxGeometry x="1040" y="165" width="50" height="50" as="geometry" />
        </mxCell>
        <mxCell id="Bxh1SdX6oCCCvW3dw0KN-49" style="edgeStyle=orthogonalEdgeStyle;rounded=0;orthogonalLoop=1;jettySize=auto;html=1;" edge="1" parent="Bxh1SdX6oCCCvW3dw0KN-15" source="Bxh1SdX6oCCCvW3dw0KN-48" target="Bxh1SdX6oCCCvW3dw0KN-50">
          <mxGeometry relative="1" as="geometry">
            <mxPoint x="1400" y="190" as="targetPoint" />
          </mxGeometry>
        </mxCell>
        <mxCell id="Bxh1SdX6oCCCvW3dw0KN-48" value="Crear A3 en estado APROBADA" style="points=[[0.25,0,0],[0.5,0,0],[0.75,0,0],[1,0.25,0],[1,0.5,0],[1,0.75,0],[0.75,1,0],[0.5,1,0],[0.25,1,0],[0,0.75,0],[0,0.5,0],[0,0.25,0]];shape=mxgraph.bpmn.task;whiteSpace=wrap;rectStyle=rounded;size=10;html=1;container=1;expand=0;collapsible=0;taskMarker=service;fillColor=#fff2cc;strokeColor=#d6b656;" vertex="1" parent="Bxh1SdX6oCCCvW3dw0KN-15">
          <mxGeometry x="1150" y="160" width="130" height="60" as="geometry" />
        </mxCell>
        <mxCell id="Bxh1SdX6oCCCvW3dw0KN-52" style="edgeStyle=orthogonalEdgeStyle;rounded=0;orthogonalLoop=1;jettySize=auto;html=1;entryX=0;entryY=0.5;entryDx=0;entryDy=0;entryPerimeter=0;" edge="1" parent="Bxh1SdX6oCCCvW3dw0KN-15" source="Bxh1SdX6oCCCvW3dw0KN-50" target="Bxh1SdX6oCCCvW3dw0KN-51">
          <mxGeometry relative="1" as="geometry" />
        </mxCell>
        <mxCell id="Bxh1SdX6oCCCvW3dw0KN-50" value="Generar AS en estado PROCESADO" style="points=[[0.25,0,0],[0.5,0,0],[0.75,0,0],[1,0.25,0],[1,0.5,0],[1,0.75,0],[0.75,1,0],[0.5,1,0],[0.25,1,0],[0,0.75,0],[0,0.5,0],[0,0.25,0]];shape=mxgraph.bpmn.task;whiteSpace=wrap;rectStyle=rounded;size=10;html=1;container=1;expand=0;collapsible=0;taskMarker=service;fillColor=#fff2cc;strokeColor=#d6b656;" vertex="1" parent="Bxh1SdX6oCCCvW3dw0KN-15">
          <mxGeometry x="1310" y="160" width="130" height="60" as="geometry" />
        </mxCell>
        <mxCell id="Bxh1SdX6oCCCvW3dw0KN-53" style="edgeStyle=orthogonalEdgeStyle;rounded=0;orthogonalLoop=1;jettySize=auto;html=1;entryX=0;entryY=0.5;entryDx=0;entryDy=0;entryPerimeter=0;" edge="1" parent="Bxh1SdX6oCCCvW3dw0KN-15" source="Bxh1SdX6oCCCvW3dw0KN-51" target="Bxh1SdX6oCCCvW3dw0KN-19">
          <mxGeometry relative="1" as="geometry" />
        </mxCell>
        <mxCell id="Bxh1SdX6oCCCvW3dw0KN-51" value="Integrar la reserva a SOFSIN" style="points=[[0.25,0,0],[0.5,0,0],[0.75,0,0],[1,0.25,0],[1,0.5,0],[1,0.75,0],[0.75,1,0],[0.5,1,0],[0.25,1,0],[0,0.75,0],[0,0.5,0],[0,0.25,0]];shape=mxgraph.bpmn.task;whiteSpace=wrap;rectStyle=rounded;size=10;html=1;container=1;expand=0;collapsible=0;taskMarker=service;fillColor=#fff2cc;strokeColor=#d6b656;" vertex="1" parent="Bxh1SdX6oCCCvW3dw0KN-15">
          <mxGeometry x="1470" y="160" width="130" height="60" as="geometry" />
        </mxCell>
        <mxCell id="Bxh1SdX6oCCCvW3dw0KN-56" style="edgeStyle=orthogonalEdgeStyle;rounded=0;orthogonalLoop=1;jettySize=auto;html=1;" edge="1" parent="Bxh1SdX6oCCCvW3dw0KN-15" source="Bxh1SdX6oCCCvW3dw0KN-55">
          <mxGeometry relative="1" as="geometry">
            <mxPoint x="1310" y="370" as="targetPoint" />
          </mxGeometry>
        </mxCell>
        <mxCell id="Bxh1SdX6oCCCvW3dw0KN-55" value="Crear A3 en estado PENDIENTE" style="points=[[0.25,0,0],[0.5,0,0],[0.75,0,0],[1,0.25,0],[1,0.5,0],[1,0.75,0],[0.75,1,0],[0.5,1,0],[0.25,1,0],[0,0.75,0],[0,0.5,0],[0,0.25,0]];shape=mxgraph.bpmn.task;whiteSpace=wrap;rectStyle=rounded;size=10;html=1;container=1;expand=0;collapsible=0;taskMarker=service;fillColor=#fff2cc;strokeColor=#d6b656;" vertex="1" parent="Bxh1SdX6oCCCvW3dw0KN-15">
          <mxGeometry x="1140" y="340" width="130" height="60" as="geometry" />
        </mxCell>
        <mxCell id="Bxh1SdX6oCCCvW3dw0KN-58" style="edgeStyle=orthogonalEdgeStyle;rounded=0;orthogonalLoop=1;jettySize=auto;html=1;" edge="1" parent="Bxh1SdX6oCCCvW3dw0KN-15" source="Bxh1SdX6oCCCvW3dw0KN-57" target="Bxh1SdX6oCCCvW3dw0KN-59">
          <mxGeometry relative="1" as="geometry">
            <mxPoint x="1490" y="370" as="targetPoint" />
          </mxGeometry>
        </mxCell>
        <mxCell id="Bxh1SdX6oCCCvW3dw0KN-57" value="Visualizar botón de &quot;Confirmación&quot; en el detalle del A3" style="points=[[0.25,0,0],[0.5,0,0],[0.75,0,0],[1,0.25,0],[1,0.5,0],[1,0.75,0],[0.75,1,0],[0.5,1,0],[0.25,1,0],[0,0.75,0],[0,0.5,0],[0,0.25,0]];shape=mxgraph.bpmn.task;whiteSpace=wrap;rectStyle=rounded;size=10;html=1;container=1;expand=0;collapsible=0;taskMarker=service;fillColor=#fff2cc;strokeColor=#d6b656;" vertex="1" parent="Bxh1SdX6oCCCvW3dw0KN-15">
          <mxGeometry x="1310" y="340" width="130" height="60" as="geometry" />
        </mxCell>
        <mxCell id="Bxh1SdX6oCCCvW3dw0KN-61" style="edgeStyle=orthogonalEdgeStyle;rounded=0;orthogonalLoop=1;jettySize=auto;html=1;entryX=0.5;entryY=1;entryDx=0;entryDy=0;entryPerimeter=0;" edge="1" parent="Bxh1SdX6oCCCvW3dw0KN-15" source="Bxh1SdX6oCCCvW3dw0KN-59" target="Bxh1SdX6oCCCvW3dw0KN-48">
          <mxGeometry relative="1" as="geometry">
            <Array as="points">
              <mxPoint x="1540" y="300" />
              <mxPoint x="1215" y="300" />
            </Array>
          </mxGeometry>
        </mxCell>
        <mxCell id="Bxh1SdX6oCCCvW3dw0KN-59" value="Dar clic en botón &quot;Confirmación" style="points=[[0.25,0,0],[0.5,0,0],[0.75,0,0],[1,0.25,0],[1,0.5,0],[1,0.75,0],[0.75,1,0],[0.5,1,0],[0.25,1,0],[0,0.75,0],[0,0.5,0],[0,0.25,0]];shape=mxgraph.bpmn.task;whiteSpace=wrap;rectStyle=rounded;size=10;html=1;container=1;expand=0;collapsible=0;taskMarker=manual;fillColor=#fff2cc;strokeColor=#d6b656;" vertex="1" parent="Bxh1SdX6oCCCvW3dw0KN-15">
          <mxGeometry x="1480" y="340" width="120" height="60" as="geometry" />
        </mxCell>
      </root>
    </mxGraphModel>
  </diagram>
</mxfile>
